<svg xmlns="http://www.w3.org/2000/svg" viewBox="0 0 453.8973 328.5838"><defs><style>.cls-1{fill:#706f6f;}.cls-2{fill:#c6c6c6;}</style></defs><title>Element 1</title><g id="Ebene_2" data-name="Ebene 2"><g id="Ebene_1-2" data-name="Ebene 1"><path class="cls-1" d="M296.1757,5.21,65.4188,235.9671c-16.1321,16.1321,8.884,41.1481,25.016,25.016L321.1918,30.2262C337.3238,14.0942,312.3078-10.9218,296.1757,5.21Z"/><path class="cls-2" d="M157.7216,323.3736,388.4785,92.6167c16.132-16.1321-8.884-41.1481-25.0161-25.016L132.7055,298.3576C116.5735,314.49,141.59,339.5057,157.7216,323.3736Z"/><path class="cls-2" d="M162.9026,310.8656q0-64.0444,0-128.0888c0-22.8329-35.3779-22.8329-35.3779,0V310.8656C127.5246,333.6986,162.9026,333.6986,162.9026,310.8656Z"/><path class="cls-2" d="M17.1247,200.4658H145.2135c22.833,0,22.833-35.378,0-35.378H17.1247C-5.7082,165.0878-5.7082,200.4658,17.1247,200.4658Z"/><path class="cls-1" d="M290.9947,17.7182V145.807c0,22.833,35.378,22.833,35.378,0V17.7182C326.3727-5.1147,290.9947-5.1147,290.9947,17.7182Z"/><path class="cls-1" d="M436.7725,128.1181H308.6837c-22.8329,0-22.8329,35.378,0,35.378H436.7725C459.6055,163.4961,459.6055,128.1181,436.7725,128.1181Z"/></g></g></svg>